<svg id="Layer_1" data-name="Layer 1" xmlns="http://www.w3.org/2000/svg" viewBox="0 0 120.78 117.79">
  <defs>
    <style>
      .cls-1, .cls-2 {
        fill: #0f0c0d;
      }

      .cls-1 {
        fill-rule: evenodd;
      }
    </style>
  </defs>
  <title>github_logo</title>
  <g>
    <path class="cls-1" d="M265.49,209.43A60.39,60.39,0,0,0,246.4,327.12c3,.56,4.12-1.31,4.12-2.9s-.05-6.2-.08-11.25c-16.8,3.66-20.35-7.12-20.35-7.12-2.74-7-6.7-8.84-6.7-8.84-5.48-3.75.41-3.67.41-3.67,6.07.43,9.26,6.22,9.26,6.22,5.39,9.24,14.13,6.57,17.57,5,.55-3.9,2.11-6.56,3.84-8.07C241.05,295,227,289.8,227,266.66a23.31,23.31,0,0,1,6.23-16.2c-.63-1.53-2.7-7.67.58-16,0,0,5.07-1.62,16.61,6.2a57.05,57.05,0,0,1,30.24,0c11.53-7.82,16.59-6.2,16.59-6.2,3.29,8.32,1.22,14.46.6,16a23.3,23.3,0,0,1,6.21,16.2c0,23.2-14.12,28.31-27.57,29.8,2.16,1.87,4.09,5.55,4.09,11.18,0,8.08-.07,14.59-.07,16.58,0,1.6,1.09,3.49,4.15,2.89a60.4,60.4,0,0,0-19.12-117.68Z" transform="translate(-205.1 -209.43)"/>
    <path class="cls-2" d="M228,296.13c-.13.31-.6.39-1,.19s-.69-.61-.55-.91.61-.39,1-.19.69.61.54.91Zm-.74-.55" transform="translate(-205.1 -209.43)"/>
    <path class="cls-2" d="M230.42,298.86c-.29.27-.85.15-1.24-.28a.92.92,0,0,1-.17-1.25c.29-.27.84-.14,1.24.28s.47,1,.17,1.25Zm-.58-.62" transform="translate(-205.1 -209.43)"/>
    <path class="cls-2" d="M232.8,302.34c-.37.26-1,0-1.35-.52s-.37-1.18,0-1.44,1,0,1.35.51.37,1.19,0,1.45Zm0,0" transform="translate(-205.1 -209.43)"/>
    <path class="cls-2" d="M236.06,305.7c-.33.37-1,.27-1.55-.23s-.68-1.18-.35-1.54,1.05-.27,1.57.23.68,1.18.33,1.54Zm0,0" transform="translate(-205.1 -209.43)"/>
    <path class="cls-2" d="M240.56,307.65c-.15.47-.83.69-1.51.49s-1.13-.76-1-1.24.82-.7,1.51-.49,1.13.76,1,1.24Zm0,0" transform="translate(-205.1 -209.43)"/>
    <path class="cls-2" d="M245.5,308c0,.5-.56.91-1.28.92s-1.31-.38-1.31-.87.56-.91,1.29-.93,1.3.39,1.3.88Zm0,0" transform="translate(-205.1 -209.43)"/>
    <path class="cls-2" d="M250.1,307.23c.09.49-.41,1-1.13,1.12s-1.34-.17-1.43-.66.42-1,1.12-1.12,1.35.17,1.44.66Zm0,0" transform="translate(-205.1 -209.43)"/>
  </g>
</svg>
